<svg id="Layer_1" data-name="Layer 1" xmlns="http://www.w3.org/2000/svg" viewBox="0 0 238.09 231.35"><defs><style>.cls-1,.cls-2{fill:#2f5d8f;}.cls-2{font-size:150.13px;font-family:BellMT, Bell MT;}</style></defs><path class="cls-1" d="M465.83,273.33c-2.76-29.3,8.88-58.18,32-76.66a87.46,87.46,0,0,1,78.71-15.25c26,7.71,47.42,28,56.05,53.79A86,86,0,0,1,621,312.06c-20.91,29.79-59.93,42.51-94.63,32.7-12.4-3.51-17.7,15.78-5.31,19.28,38.21,10.81,80.79-.7,107.75-30.05A106.73,106.73,0,0,0,655,241.74c-6.3-32.63-29.3-61.2-59.67-74.57A107.55,107.55,0,0,0,497.1,173c-34.45,20.6-55.05,60.26-51.27,100.33.51,5.38,4.23,10,10,10,5,0,10.51-4.59,10-10Z" transform="translate(-418.82 -158.01)"/><path class="cls-1" d="M472.35,297.48a83.71,83.71,0,0,1-6.52-24.15c-.6-5.37-4.17-10-10-10-4.94,0-10.6,4.6-10,10a115,115,0,0,0,9.25,34.24c2.17,4.95,9.4,6.1,13.68,3.59,5.1-3,5.77-8.72,3.59-13.68Z" transform="translate(-418.82 -158.01)"/><path class="cls-1" d="M525.74,344.57a92.28,92.28,0,0,1-27-13.62c-4.38-3.16-11.14-.75-13.68,3.59-2.95,5-.8,10.51,3.59,13.68a108.79,108.79,0,0,0,31.8,15.63c12.33,3.8,17.6-15.5,5.32-19.28Z" transform="translate(-418.82 -158.01)"/><path class="cls-1" d="M455,297.29c-12,25.47-23,51.38-34.47,77.08-1.84,4.12-1.82,8.73,1.57,12.11a10.18,10.18,0,0,0,12.11,1.57,34.73,34.73,0,0,0,6.08-4.49c7.24-6.63-.29-19.89-9.73-16.71-4.55,1.54-7.14,3.75-10,7.52-6.24,8.14,5.7,18.7,13.68,13.68,21.43-13.47,43.19-26.41,64.69-39.75,10.92-6.78.89-24.09-10.09-17.27-21.51,13.34-43.26,26.28-64.69,39.75l13.68,13.68-1.92,1.68-9.73-16.72a6.64,6.64,0,0,1-2,1.36l13.68,13.68c11.47-25.7,22.48-51.61,34.47-77.07,2.3-4.89,1.37-10.79-3.58-13.68-4.35-2.54-11.37-1.32-13.69,3.58Z" transform="translate(-418.82 -158.01)"/><text class="cls-2" transform="translate(97.21 143.16) rotate(7.93) scale(1.31 1)">i</text></svg>