<svg id="Layer_1" data-name="Layer 1" xmlns="http://www.w3.org/2000/svg" viewBox="0 0 563.91 485.64"><defs><style>.cls-1{fill:#2f5d8f;}</style></defs><path class="cls-1" d="M397,582.5V336.19l-9.91,17.27,92.2-67.63,145.87-107,33.47-24.55H638.44l98,73.9,13.91,10.49c5.52,4.17,14.57,3.29,20.19,0a20.14,20.14,0,0,0,9.9-17.27V173l-20,20h66.19l-20-20V254.6c0,6.93,1.53,13.2,6.56,18.5,3.16,3.33,6.53,6.47,9.79,9.69l37,36.6,26.41,26.15L880.5,331.4V582.5c0,10.46,9.2,20.48,20,20s20-8.79,20-20V350.09c0-6,.24-12.06,0-18.06-.47-11.71-9.5-18.38-17.13-25.94l-61.13-60.54-1.45-1.44,5.86,14.15V173a20.3,20.3,0,0,0-20-20H760.46a20.3,20.3,0,0,0-20,20v48.35l30.1-17.26-98-73.91-13.91-10.49c-5.11-3.85-15.06-3.76-20.19,0l-72.79,53.4L432.58,270.75l-49.14,36-13.12,9.63c-1,.72-2,1.44-3,2.17-6.24,4.63-9.92,9.85-10.36,17.77-.68,12.32,0,24.87,0,37.2V582.5c0,10.46,9.2,20.48,20,20s20-8.79,20-20Z" transform="translate(-356.7 -116.87)"/><path class="cls-1" d="M511.1,360V494.21c0,10.28-.08,20.57,0,30.85v.49a9.13,9.13,0,0,0,9,9H737.76c3,0,5.91,0,8.86,0H747a9.13,9.13,0,0,0,9-9V360a9.13,9.13,0,0,0-9-9H520.1c-4.71,0-9.22,4.14-9,9a9.15,9.15,0,0,0,9,9H747l-9-9V525.55l9-9H529.33c-3,0-5.9,0-8.85,0h-.38l9,9V360c0-4.71-4.14-9.22-9-9A9.15,9.15,0,0,0,511.1,360Z" transform="translate(-356.7 -116.87)"/><path class="cls-1" d="M520,451.78H737.76c3,0,5.91,0,8.86,0H747c4.71,0,9.22-4.14,9-9a9.15,9.15,0,0,0-9-9H529.24c-3,0-5.91,0-8.86,0H520c-4.71,0-9.22,4.14-9,9a9.16,9.16,0,0,0,9,9Z" transform="translate(-356.7 -116.87)"/><path class="cls-1" d="M635.75,369H638l-9-9,.11,16.42.26,39.16.32,47.32.27,40.9c0,6.64,0,13.28.13,19.91a2.81,2.81,0,0,1,0,.29c0,4.71,4.11,9.22,9,9a9.15,9.15,0,0,0,9-9L648,507.58l-.26-39.16-.32-47.32-.27-40.9c0-6.63,0-13.28-.14-19.91V360a9.14,9.14,0,0,0-9-9h-2.25c-4.71,0-9.22,4.14-9,9a9.16,9.16,0,0,0,9,9Z" transform="translate(-356.7 -116.87)"/></svg>