<svg id="Layer_1" data-name="Layer 1" xmlns="http://www.w3.org/2000/svg" viewBox="0 0 703.61 374.83"><defs><style>.cls-1{fill:#2f5d8f;}</style></defs><path class="cls-1" d="M448.78,404.11,485,462.39l66,106.32,24.18,38.94c7.16,11.55,12.82,24,28.82,24.85,18.61,1,37.54,0,56.17,0H899.71c20,0,40.07.59,60,0,9.38-.28,15.57-4.69,21.11-11.91l1-1.33,6.15-8.08,25.33-33.26,75.25-98.82,54.24-71.22,2.87-3.77c5-6.59,3.93-17.51,0-24.22A24.18,24.18,0,0,0,1125,368H469.5c-12.55,0-24.58,11-24,24s10.55,24,24,24h554.38c33.18,0,66.44.68,99.61,0H1125l-20.72-36.11-56,73.47L959.84,569.55,939.4,596.39l20.72-11.89H647.91c-14.43,0-29-.54-43.38,0h-.63l20.73,11.89-45.45-73.21-72.4-116.62-16.56-26.67c-6.61-10.66-21.74-15.77-32.83-8.61C446.7,378.17,441.69,392.7,448.78,404.11Z" transform="translate(-445.48 -258.1)"/><path class="cls-1" d="M688,265l-82.34,96.79L594,375.53c-8.13,9.55-10.08,24.69,0,33.94,8.94,8.21,25.25,10.21,33.94,0l82.34-96.79L722,299c8.13-9.55,10.08-24.69,0-33.94-8.94-8.21-25.25-10.21-33.94,0Z" transform="translate(-445.48 -258.1)"/><path class="cls-1" d="M860,299l103.61,97L978,409.47c9.17,8.59,25,9.77,33.94,0,8.56-9.32,9.79-24.77,0-33.94l-103.61-97L894,265c-9.17-8.59-25-9.77-33.94,0-8.56,9.32-9.79,24.77,0,33.94Z" transform="translate(-445.48 -258.1)"/><path class="cls-1" d="M887.9,427.59l1.93,126.85.27,18c.19,12.55,10.91,24.59,24,24,12.84-.57,24.21-10.55,24-24l-1.93-126.85-.27-18c-.19-12.55-10.91-24.59-24-24-12.84.57-24.21,10.55-24,24Z" transform="translate(-445.48 -258.1)"/><path class="cls-1" d="M757.23,427.74l1.12,126.86.16,18c.11,12.55,11,24.58,24,24s24.12-10.55,24-24l-1.12-126.86-.16-18c-.11-12.55-11-24.59-24-24s-24.12,10.55-24,24Z" transform="translate(-445.48 -258.1)"/><path class="cls-1" d="M634.14,427.69l-.8,127.25-.11,18c-.08,12.55,11.1,24.58,24,24,13.07-.59,23.92-10.55,24-24l.8-127.26.11-18c.08-12.56-11.1-24.58-24-24-13.07.58-23.92,10.54-24,24Z" transform="translate(-445.48 -258.1)"/></svg>